<svg width="135" height="124" viewBox="0 0 135 124" fill="none" xmlns="http://www.w3.org/2000/svg">
    <path fill-rule="evenodd" clip-rule="evenodd" d="M100.883 6.58819L93.4132 34.4868C92.4379 38.1285 94.5959 41.075 98.2376 41.075H126.136C129.778 41.075 131.936 44.0216 130.961 47.6632L121.716 82.1605H87.2192C83.5776 82.1605 81.4196 79.2139 82.3948 75.5723L89.8649 47.6736C90.8402 44.0319 88.6821 41.0854 85.0405 41.0854H57.1418C53.5002 41.0854 51.3421 38.1389 52.3174 34.4972L61.5616 0H96.0588C99.7005 0 101.859 2.94653 100.883 6.58819ZM71.9989 70.3745L79.22 80.2412H79.2303C80.1433 81.4758 80.382 83.1462 79.9151 84.8996L69.6334 123.256H35.1361C31.4945 123.256 29.3365 120.31 30.3117 116.668L38.3317 86.7256C38.6691 85.4694 38.4663 84.33 37.8635 83.505L66.8736 69.5652C68.8864 68.6315 70.9614 68.9635 71.9989 70.3745ZM37.861 83.5016C37.8618 83.5027 37.8627 83.5039 37.8635 83.505L37.8544 83.5094L37.861 83.5016ZM37.861 83.5016C37.2588 82.6798 36.2592 82.171 35.0013 82.171H5.05873C1.41706 82.171 -0.740956 79.2244 0.234303 75.5828L9.46815 41.0959H47.8249C49.5679 41.0959 51.0619 41.7911 51.9646 43.0257L59.4761 53.2867C60.524 54.7288 60.2439 56.9387 58.7914 58.7129L37.861 83.5016Z" fill="url(#paint0_linear_66_4919)"/>
    <defs>
    <linearGradient id="paint0_linear_66_4919" x1="65.5975" y1="0" x2="65.5975" y2="123.256" gradientUnits="userSpaceOnUse">
    <stop stop-color="#1BB3F3"/>
    <stop offset="1" stop-color="#186CE6"/>
    </linearGradient>
    </defs>
    </svg>    