<svg width="527" height="124" viewBox="0 0 527 124" fill="none" xmlns="http://www.w3.org/2000/svg">
<path fill-rule="evenodd" clip-rule="evenodd" d="M100.883 6.84454L93.4132 34.7432C92.4379 38.3849 94.5959 41.3314 98.2376 41.3314H126.136C129.778 41.3314 131.936 44.2779 130.961 47.9196L121.716 82.4168H87.2192C83.5776 82.4168 81.4196 79.4703 82.3948 75.8286L89.8649 47.93C90.8402 44.2883 88.6821 41.3418 85.0405 41.3418H57.1418C53.5002 41.3418 51.3421 38.3952 52.3174 34.7536L61.5616 0.256348H96.0588C99.7005 0.256348 101.859 3.20288 100.883 6.84454ZM71.9989 70.6308L79.22 80.4976H79.2303C80.1433 81.7322 80.382 83.4026 79.9151 85.156L69.6334 123.513H35.1361C31.4945 123.513 29.3365 120.566 30.3117 116.925L38.3317 86.982C38.6691 85.7257 38.4663 84.5863 37.8635 83.7613L66.8736 69.8216C68.8864 68.8878 70.9614 69.2198 71.9989 70.6308ZM37.861 83.7579C37.8618 83.7591 37.8627 83.7602 37.8635 83.7613L37.8544 83.7657L37.861 83.7579ZM37.861 83.7579C37.2588 82.9361 36.2592 82.4273 35.0013 82.4273H5.05873C1.41706 82.4273 -0.740956 79.4808 0.234303 75.8391L9.46815 41.3523H47.8249C49.5679 41.3523 51.0619 42.0474 51.9646 43.2821L59.4761 53.543C60.524 54.9852 60.2439 57.1951 58.7914 58.9692L37.861 83.7579Z" fill="url(#paint0_linear_66_4921)"/>
<path d="M162.212 15.0477H175.184V86.4446H162.212V15.0477Z" fill="white"/>
<path d="M186.427 37.4167H198.888V44.0559C201.204 41.264 203.961 39.2212 207.162 37.9274C210.362 36.5655 213.733 35.8846 217.274 35.8846C223.879 35.8846 228.816 37.6891 232.084 41.2981C235.353 44.839 236.987 49.5716 236.987 55.4958V86.4446H224.117V56.7215C224.117 49.5716 220.781 45.9966 214.108 45.9966C211.179 45.9966 208.422 46.7116 205.834 48.1416C203.246 49.5035 201.067 51.5803 199.297 54.3722V86.4446H186.427V37.4167Z" fill="white"/>
<path d="M266.848 87.9767C263.308 87.9767 259.528 87.5682 255.511 86.751C251.493 85.9339 248.361 84.8104 246.114 83.3804V72.4512C248.769 74.0855 251.936 75.4133 255.613 76.4348C259.29 77.3881 262.763 77.8647 266.031 77.8647C269.3 77.8647 271.683 77.5924 273.181 77.0476C274.679 76.4348 275.428 75.3453 275.428 73.7791C275.428 72.5534 275.02 71.566 274.203 70.817C273.454 69.9998 272.194 69.2849 270.423 68.672C268.721 67.9911 266.065 67.1739 262.456 66.2206C258.371 65.063 255.136 63.8714 252.753 62.6457C250.438 61.42 248.667 59.8878 247.442 58.0493C246.284 56.1427 245.705 53.6913 245.705 50.6951C245.705 45.7923 247.646 42.1152 251.527 39.6638C255.409 37.1443 260.652 35.8846 267.257 35.8846C270.662 35.8846 274.032 36.2251 277.369 36.906C280.774 37.5189 283.429 38.4041 285.336 39.5617V50.0823C283.293 48.8566 280.808 47.8692 277.88 47.1202C274.952 46.3711 271.955 45.9966 268.891 45.9966C265.555 45.9966 263.035 46.3371 261.333 47.018C259.63 47.6309 258.779 48.8566 258.779 50.6951C258.779 51.9208 259.222 52.9082 260.107 53.6572C261.06 54.3382 262.286 54.951 263.784 55.4958C265.282 55.9724 268.006 56.7215 271.955 57.7429C276.177 58.9005 279.48 60.1602 281.863 61.5221C284.247 62.884 285.949 64.5183 286.97 66.4249C287.992 68.3315 288.502 70.7148 288.502 73.5748C288.502 77.9328 286.63 81.4397 282.885 84.0954C279.208 86.683 273.862 87.9767 266.848 87.9767Z" fill="white"/>
<path d="M316.9 87.9767C310.295 87.9767 305.358 86.2063 302.09 82.6654C298.821 79.0564 297.187 74.2898 297.187 68.3656V37.4167H310.057V67.1399C310.057 74.2898 313.393 77.8647 320.067 77.8647C322.995 77.8647 325.752 77.1838 328.34 75.8219C330.928 74.3919 333.107 72.281 334.877 69.4891V37.4167H347.747V86.4446H335.286V79.8054C332.97 82.5973 330.213 84.6742 327.012 86.0361C323.812 87.3298 320.441 87.9767 316.9 87.9767Z" fill="white"/>
<path d="M359.018 37.4167H371.48V45.2816C373.454 42.6259 376.246 40.6512 379.855 39.3574C383.532 38.0636 387.72 37.4167 392.419 37.4167V47.2223C387.448 47.2223 383.124 48.0054 379.447 49.5715C375.838 51.0696 373.318 53.4529 371.888 56.7215V86.4446H359.018V37.4167Z" fill="white"/>
<path d="M429.621 87.9767C419.543 87.9767 411.917 85.3551 406.742 80.1119C401.634 74.8005 399.081 67.6506 399.081 58.6621V15.0477H412.053V58.8664C412.053 64.5183 413.619 68.8422 416.751 71.8384C419.952 74.7664 424.242 76.2305 429.621 76.2305C434.933 76.2305 439.154 74.7664 442.287 71.8384C445.487 68.8422 447.087 64.5183 447.087 58.8664V15.0477H460.059V58.6621C460.059 67.6506 457.506 74.8005 452.399 80.1119C447.292 85.3551 439.699 87.9767 429.621 87.9767Z" fill="white"/>
<path d="M468.787 37.4167H481.249V43.3409C483.904 40.8214 486.798 38.9488 489.931 37.7231C493.063 36.4974 496.638 35.8846 500.656 35.8846C505.626 35.8846 510.053 36.9741 513.934 39.1531C517.883 41.264 520.948 44.2942 523.127 48.2437C525.374 52.1251 526.497 56.6534 526.497 61.8285C526.497 66.9356 525.374 71.4639 523.127 75.4133C520.948 79.3628 517.883 82.4611 513.934 84.7082C510.053 86.8872 505.626 87.9767 500.656 87.9767C496.91 87.9767 493.369 87.466 490.033 86.4446C486.764 85.3551 483.972 83.7549 481.657 81.644V108.814H468.787V37.4167ZM497.489 77.8647C502.12 77.8647 505.933 76.3667 508.929 73.3705C511.925 70.3744 513.423 66.527 513.423 61.8285C513.423 57.13 511.925 53.3167 508.929 50.3887C505.933 47.4606 502.12 45.9966 497.489 45.9966C493.812 45.9966 490.544 46.984 487.684 48.9587C484.824 50.9334 482.815 53.5891 481.657 56.9257V66.8335C482.747 70.1701 484.721 72.8598 487.581 74.9026C490.51 76.8774 493.812 77.8647 497.489 77.8647Z" fill="white"/>
<defs>
<linearGradient id="paint0_linear_66_4921" x1="65.5975" y1="0.256348" x2="65.5975" y2="123.513" gradientUnits="userSpaceOnUse">
<stop stop-color="#1BB3F3"/>
<stop offset="1" stop-color="#186CE6"/>
</linearGradient>
</defs>
</svg>
